<svg width="155" height="26" viewBox="0 0 155 26" fill="none" xmlns="http://www.w3.org/2000/svg">
<path d="M117.717 0.161133H152.452C152.901 0.173188 153.326 0.362146 153.636 0.687012C153.946 1.01188 154.115 1.44616 154.106 1.89502V23.5679C154.115 24.0167 153.946 24.451 153.636 24.7759C153.326 25.1007 152.901 25.2897 152.452 25.3018H117.717C117.268 25.2897 116.842 25.1007 116.532 24.7759C116.222 24.451 116.054 24.0167 116.063 23.5679V1.896C116.053 1.44696 116.222 1.01258 116.532 0.6875C116.842 0.362418 117.268 0.173187 117.717 0.161133Z" fill="#F1F1F1"/>
<path d="M116.476 24.7109C116.21 24.3902 116.065 23.9863 116.067 23.5698V1.896C116.057 1.44696 116.226 1.01258 116.536 0.6875C116.846 0.362418 117.272 0.173187 117.721 0.161133H152.455C152.876 0.162079 153.281 0.328593 153.581 0.625L116.481 24.7109H116.476Z" fill="white" fill-opacity="0.73"/>
<path d="M130.712 18.126L132.012 15.776L131.288 10.1319H133.059L133.345 13.4722L135.078 10.1319H136.906L132.697 18.126H130.712ZM125.159 13.9102C125.432 12.5362 126.759 12.1002 128.721 12.1002C128.838 11.4892 128.449 11.336 127.787 11.359C127.203 11.3872 126.629 11.5204 126.093 11.752L126.248 10.379C126.892 10.1788 127.559 10.0614 128.233 10.0299C129.459 10.0079 130.822 10.3993 130.511 11.9923L129.752 15.7423H127.981L128.097 15.1739C127.891 15.386 127.645 15.5554 127.374 15.6715C127.102 15.7875 126.81 15.8482 126.515 15.8502C125.676 15.8462 124.929 15.2998 125.16 13.9058L125.159 13.9102ZM126.97 13.8228C126.914 13.9018 126.882 13.9953 126.878 14.0919C126.875 14.1884 126.899 14.2842 126.948 14.3673C126.998 14.4503 127.07 14.5174 127.157 14.5601C127.243 14.6029 127.341 14.6193 127.437 14.608C127.656 14.6177 127.871 14.548 128.043 14.4117C128.215 14.2754 128.331 14.0819 128.372 13.8663C128.395 13.6977 128.428 13.5308 128.472 13.3663H128.024C127.824 13.3478 127.623 13.3794 127.439 13.4586C127.255 13.5377 127.093 13.6614 126.97 13.8189V13.8228ZM119.059 15.7423L120.523 8.5699H123.83C124.124 8.56728 124.416 8.63551 124.679 8.76863C124.942 8.90174 125.169 9.09595 125.341 9.33503C125.514 9.57412 125.627 9.85105 125.67 10.1427C125.713 10.4343 125.686 10.7319 125.591 11.0108C125.495 11.6667 125.167 12.2661 124.665 12.6988C124.163 13.1315 123.521 13.3688 122.859 13.3663H121.476L121.001 15.7423H119.059ZM121.752 11.9923H122.662C122.928 11.971 123.18 11.8635 123.38 11.6866C123.58 11.5097 123.717 11.2724 123.771 11.0108C123.813 10.9032 123.828 10.7873 123.816 10.6724C123.803 10.5576 123.763 10.4473 123.699 10.3511C123.635 10.255 123.549 10.1759 123.448 10.1202C123.346 10.0645 123.233 10.0335 123.118 10.0308H122.168L121.752 11.9923Z" fill="#3284AE"/>
<path d="M142.375 13.9058C142.651 12.5318 143.992 12.0972 145.981 12.0972C146.119 11.4852 145.725 11.334 145.055 11.356C144.459 11.3866 143.873 11.5193 143.321 11.748L143.479 10.375C144.139 10.1774 144.821 10.0604 145.508 10.0269C146.749 10.0049 148.108 10.3958 147.793 11.9878L147.025 15.7368H145.252L145.37 15.1709C144.941 15.6 144.36 15.8431 143.752 15.8472C142.894 15.8462 142.138 15.3008 142.375 13.9058ZM144.208 13.8188C144.154 13.9004 144.125 13.996 144.124 14.0938C144.123 14.1915 144.15 14.2873 144.202 14.3701C144.254 14.4529 144.329 14.5191 144.417 14.5605C144.506 14.602 144.605 14.6171 144.701 14.604C144.919 14.6137 145.133 14.5438 145.303 14.4077C145.474 14.2716 145.589 14.0783 145.627 13.8638C145.666 13.6888 145.686 13.5358 145.727 13.3638H145.294C145.089 13.343 144.883 13.3739 144.692 13.4531C144.502 13.5324 144.335 13.6577 144.205 13.8179L144.208 13.8188ZM147.844 15.7368L149.31 8.54297H151.13L149.645 15.7368H147.844ZM136.275 15.7368L137.737 8.56592H141.037C141.331 8.56512 141.621 8.63441 141.883 8.76807C142.145 8.90172 142.371 9.09592 142.543 9.33447C142.715 9.57302 142.827 9.84896 142.871 10.1396C142.914 10.4303 142.888 10.7273 142.794 11.0059C142.699 11.664 142.368 12.2652 141.864 12.6982C141.359 13.1313 140.714 13.3667 140.049 13.3608H138.686L138.192 15.7358L136.275 15.7368ZM138.962 11.9878H139.85C140.119 11.9671 140.373 11.8608 140.576 11.6841C140.779 11.5074 140.92 11.2698 140.977 11.0068C141.017 10.8977 141.03 10.7808 141.016 10.6655C141.001 10.5503 140.96 10.4401 140.894 10.3442C140.828 10.2484 140.741 10.17 140.639 10.1147C140.536 10.0595 140.423 10.0292 140.306 10.0269H139.358L138.962 11.9878Z" fill="#3CA9C7"/>
<path d="M59.5326 0H94.5055C94.9562 0.00918945 95.3849 0.196793 95.6971 0.521973C96.0094 0.847152 96.1796 1.28316 96.1705 1.73389V23.4082C96.1796 23.8589 96.0094 24.2944 95.6971 24.6196C95.3849 24.9448 94.9562 25.1329 94.5055 25.1421H59.5326C59.0819 25.1329 58.6532 24.9448 58.3409 24.6196C58.0287 24.2944 57.8584 23.8589 57.8675 23.4082V1.73389C57.8584 1.28316 58.0287 0.847152 58.3409 0.521973C58.6532 0.196793 59.0819 0.00918945 59.5326 0V0Z" fill="#5870BE"/>
<path d="M74.623 12.5668C74.6234 10.791 75.1504 9.05527 76.1372 7.57897C77.124 6.10266 78.5264 4.95214 80.1671 4.27282C81.8078 3.59349 83.613 3.41596 85.3546 3.76256C87.0962 4.10916 88.696 4.96437 89.9515 6.22008C91.2071 7.4758 92.0622 9.07561 92.4086 10.8172C92.755 12.5589 92.5771 14.3642 91.8976 16.0047C91.2181 17.6453 90.0675 19.0474 88.5911 20.034C87.1147 21.0207 85.3788 21.5475 83.603 21.5477C82.4237 21.5477 81.2558 21.3155 80.1663 20.8641C79.0767 20.4128 78.0867 19.7513 77.2528 18.9173C76.4189 18.0834 75.7575 17.0934 75.3063 16.0038C74.855 14.9142 74.6229 13.7461 74.623 12.5668Z" fill="#FFAF38"/>
<path d="M69.8442 21.5459C68.3131 21.5457 66.8075 21.1541 65.4704 20.4082C64.1333 19.6623 63.0091 18.5868 62.2047 17.2841C61.4002 15.9814 60.9422 14.4949 60.8741 12.9653C60.806 11.4357 61.1302 9.9139 61.8158 8.54487C62.5013 7.17585 63.5256 6.00524 64.7911 5.14351C66.0567 4.28178 67.5215 3.75772 69.0465 3.62153C70.5715 3.48535 72.106 3.74133 73.5042 4.36519C74.9025 4.98904 76.118 5.9601 77.0352 7.18599H75.8353V7.78609H77.4482C77.5692 7.97709 77.6833 8.17495 77.7893 8.37495H75.2352V8.97505H78.0782C78.1662 9.17505 78.2453 9.37515 78.3153 9.57515H74.6352V10.1748H78.5033C78.9894 11.9487 78.9224 13.829 78.3112 15.5639H74.6352V16.164H78.0742C77.9842 16.371 77.8873 16.5638 77.7893 16.7548H75.2352V17.3549H77.4413C77.3083 17.5649 77.1693 17.766 77.0283 17.955H75.8353V18.5551H76.5352C75.6925 19.4955 74.6611 20.2478 73.5083 20.7631C72.3554 21.2785 71.107 21.545 69.8442 21.5459V21.5459Z" fill="#E63737"/>
<path d="M59.9924 14.2188L60.5391 9.95883L61.3876 10.0677L62.0089 13.2134C62.0658 13.5062 62.1066 13.7251 62.1313 13.8701C62.1997 13.7213 62.3044 13.5034 62.4456 13.2163L63.846 10.3832L64.6044 10.4805L64.0577 14.7405L63.5143 14.6708L63.9719 11.1053L62.2764 14.5119L61.7679 14.4467L61.0012 10.662L60.5358 14.2886L59.9924 14.2188ZM66.963 14.7264C66.7482 14.8662 66.5463 14.9585 66.3574 15.0032C66.1705 15.0481 65.9744 15.0574 65.769 15.031C65.43 14.9875 65.18 14.8718 65.019 14.6837C64.8583 14.4938 64.7945 14.2699 64.8276 14.0123C64.8469 13.8612 64.8985 13.728 64.9822 13.6127C65.0681 13.4957 65.1711 13.4066 65.2912 13.3452C65.4133 13.284 65.5466 13.2431 65.691 13.2222C65.7972 13.2083 65.9555 13.202 66.166 13.2034C66.5948 13.2073 66.9134 13.1871 67.1219 13.143C67.1331 13.0715 67.1399 13.0261 67.1423 13.0068C67.1697 12.7937 67.1396 12.6372 67.052 12.5373C66.9334 12.402 66.7425 12.3174 66.479 12.2836C66.233 12.2521 66.0453 12.2723 65.9159 12.3443C65.7887 12.4146 65.683 12.5556 65.5987 12.7673L65.0963 12.6319C65.1709 12.419 65.27 12.2525 65.3937 12.1325C65.5177 12.0106 65.685 11.9267 65.8956 11.8809C66.1066 11.8331 66.3447 11.8263 66.6101 11.8604C66.8736 11.8942 67.0837 11.9526 67.2404 12.0358C67.3971 12.1189 67.5081 12.2129 67.5734 12.3177C67.639 12.4207 67.678 12.5458 67.6906 12.6931C67.6966 12.7845 67.6847 12.9464 67.6549 13.1789L67.5654 13.8763C67.503 14.3625 67.4741 14.6719 67.4788 14.8044C67.4856 14.9353 67.5144 15.064 67.5651 15.1906L67.0188 15.1205C66.9784 15.0051 66.9599 14.8737 66.963 14.7264ZM67.0693 13.5527C66.8695 13.6058 66.5763 13.6351 66.1897 13.6407C65.9706 13.6441 65.8141 13.6594 65.72 13.6867C65.6259 13.714 65.5498 13.7623 65.4917 13.8317C65.4338 13.8991 65.399 13.9783 65.3873 14.0694C65.3694 14.2088 65.4068 14.3318 65.4995 14.4382C65.5941 14.5449 65.7431 14.6112 65.9465 14.6373C66.148 14.6632 66.3328 14.6426 66.5009 14.5756C66.6693 14.5066 66.8001 14.4003 66.8933 14.2567C66.9647 14.1458 67.0151 13.975 67.0447 13.7445L67.0693 13.5527ZM68.1221 14.3258L68.6498 14.3108C68.6522 14.5218 68.7122 14.691 68.8298 14.8183C68.9493 14.9459 69.1282 15.025 69.3664 15.0556C69.6067 15.0864 69.7911 15.0608 69.9198 14.9789C70.0487 14.895 70.1216 14.7872 70.1385 14.6555C70.1537 14.5373 70.1143 14.4377 70.0203 14.3567C69.9546 14.301 69.7839 14.2191 69.5084 14.1109C69.1372 13.9648 68.8815 13.8473 68.7413 13.7584C68.6033 13.6678 68.5035 13.5556 68.4419 13.4217C68.3825 13.286 68.3625 13.1427 68.3819 12.9916C68.3996 12.854 68.4468 12.7311 68.5237 12.6228C68.6028 12.5129 68.7016 12.4261 68.82 12.3625C68.9091 12.3129 69.026 12.2767 69.1707 12.2539C69.3176 12.2295 69.4714 12.2276 69.6322 12.2482C69.8744 12.2793 70.082 12.3414 70.2552 12.4345C70.4303 12.5278 70.5537 12.6402 70.6254 12.7715C70.6974 12.9008 70.7371 13.0674 70.7444 13.2711L70.2241 13.2752C70.2212 13.1134 70.1693 12.9807 70.0684 12.8772C69.9694 12.7739 69.8182 12.7092 69.6148 12.6831C69.3746 12.6523 69.198 12.67 69.0852 12.7362C68.9723 12.8025 68.909 12.8889 68.8954 12.9954C68.8867 13.0632 68.9001 13.127 68.9358 13.1867C68.9712 13.2484 69.0321 13.3034 69.1184 13.3519C69.1682 13.378 69.3165 13.4423 69.5633 13.5449C69.9206 13.6912 70.1678 13.8056 70.3049 13.8882C70.4442 13.9691 70.5478 14.0749 70.6156 14.2057C70.6835 14.3365 70.706 14.491 70.6832 14.6692C70.6608 14.8436 70.5883 15.0017 70.4658 15.1435C70.3454 15.2836 70.1838 15.384 69.9811 15.4446C69.7786 15.5033 69.5563 15.5171 69.3142 15.486C68.9132 15.4345 68.6178 15.312 68.428 15.1183C68.2401 14.9248 68.1382 14.6606 68.1221 14.3258ZM72.3907 15.3344L72.407 15.8061C72.2558 15.8182 72.122 15.8168 72.0058 15.8019C71.816 15.7775 71.6726 15.7286 71.5757 15.6551C71.4788 15.5816 71.4152 15.4937 71.385 15.3914C71.3551 15.2871 71.3603 15.0781 71.4005 14.7643L71.6284 12.9888L71.2448 12.9396L71.297 12.5327L71.6806 12.582L71.7787 11.8177L72.3391 11.5706L72.2008 12.6487L72.7267 12.7162L72.6745 13.123L72.1485 13.0555L71.917 14.8601C71.8978 15.0092 71.8942 15.1062 71.9062 15.1511C71.9201 15.1962 71.9458 15.234 71.9832 15.2644C72.0226 15.295 72.081 15.3153 72.1585 15.3253C72.2167 15.3327 72.294 15.3358 72.3907 15.3344ZM75.0851 15.1455L75.617 15.2817C75.4913 15.5866 75.3019 15.8114 75.049 15.9561C74.7961 16.1009 74.4905 16.1503 74.1321 16.1043C73.6807 16.0464 73.3401 15.8619 73.1102 15.5508C72.8826 15.238 72.8009 14.8307 72.8653 14.329C72.9319 13.8098 73.1173 13.424 73.4215 13.1716C73.7256 12.9192 74.0908 12.8204 74.517 12.8751C74.9296 12.928 75.2486 13.1117 75.4741 13.4262C75.6996 13.7407 75.7796 14.1526 75.7143 14.6621C75.7103 14.6931 75.7033 14.7395 75.6934 14.8012L73.392 14.5059C73.3679 14.8474 73.4305 15.1193 73.5797 15.3216C73.729 15.5239 73.9325 15.6415 74.1902 15.6746C74.382 15.6992 74.5521 15.6699 74.7006 15.5865C74.8492 15.5032 74.9773 15.3562 75.0851 15.1455ZM73.4763 14.0795L75.1994 14.3007C75.2095 14.0381 75.1686 13.835 75.0768 13.6913C74.936 13.4684 74.733 13.3399 74.4676 13.3059C74.2274 13.2751 74.0146 13.3295 73.8293 13.4691C73.6459 13.609 73.5283 13.8125 73.4763 14.0795ZM76.1519 16.2926L76.5479 13.2066L77.0187 13.267L76.9586 13.7349C77.1068 13.5314 77.2358 13.4012 77.3455 13.3444C77.4571 13.2878 77.5739 13.2674 77.696 13.283C77.8722 13.3057 78.0442 13.3848 78.2119 13.5206L77.9695 13.9827C77.8513 13.8908 77.7283 13.8366 77.6004 13.8202C77.4861 13.8055 77.379 13.8272 77.279 13.8853C77.1792 13.9414 77.1022 14.028 77.0478 14.145C76.9658 14.3236 76.9106 14.5232 76.8823 14.7441L76.6749 16.3597L76.1519 16.2926ZM81.4375 15.4527L81.983 15.6675C81.8054 16.1153 81.5469 16.4415 81.2076 16.6461C80.8704 16.8489 80.48 16.9219 80.0364 16.865C79.5773 16.8061 79.2153 16.6651 78.9505 16.4421C78.6879 16.2174 78.5038 15.9181 78.3982 15.5441C78.2946 15.1705 78.2688 14.7802 78.321 14.3734C78.378 13.9298 78.5118 13.5541 78.7226 13.2464C78.9356 12.937 79.209 12.7171 79.5428 12.5867C79.8787 12.4545 80.2346 12.4126 80.6105 12.4608C81.0367 12.5155 81.3811 12.67 81.6439 12.9243C81.9066 13.1785 82.0699 13.5096 82.1337 13.9175L81.5619 13.9771C81.5029 13.6544 81.3885 13.4103 81.2187 13.2448C81.049 13.0793 80.8217 12.9782 80.5369 12.9417C80.2095 12.8997 79.9253 12.943 79.6844 13.0715C79.4453 13.2004 79.2642 13.3918 79.141 13.6457C79.0181 13.8977 78.9386 14.1642 78.9026 14.4451C78.8561 14.8074 78.8677 15.1308 78.9376 15.4155C79.0095 15.6984 79.1484 15.921 79.354 16.0833C79.5596 16.2455 79.7922 16.3433 80.0518 16.3766C80.3676 16.4172 80.6466 16.3604 80.8889 16.2064C81.1312 16.0524 81.314 15.8012 81.4375 15.4527ZM84.5028 16.9774C84.2879 17.1172 84.086 17.2094 83.8972 17.2541C83.7102 17.299 83.5141 17.3083 83.3088 17.282C82.9697 17.2385 82.7198 17.1227 82.5588 16.9347C82.3981 16.7447 82.3342 16.5209 82.3673 16.2632C82.3867 16.1121 82.4382 15.9789 82.522 15.8636C82.6079 15.7467 82.7109 15.6575 82.831 15.5961C82.953 15.535 83.0863 15.494 83.2308 15.4732C83.3369 15.4592 83.4952 15.4529 83.7058 15.4544C84.1345 15.4582 84.4532 15.438 84.6617 15.3939C84.6728 15.3225 84.6796 15.2771 84.6821 15.2577C84.7094 15.0446 84.6793 14.8881 84.5917 14.7883C84.4732 14.653 84.2822 14.5684 84.0187 14.5346C83.7727 14.503 83.585 14.5232 83.4557 14.5952C83.3285 14.6655 83.2228 14.8066 83.1385 15.0183L82.636 14.8829C82.7106 14.6699 82.8097 14.5035 82.9334 14.3835C83.0574 14.2615 83.2247 14.1777 83.4354 14.1318C83.6463 14.0841 83.8845 14.0772 84.1499 14.1113C84.4133 14.1451 84.6234 14.2036 84.7801 14.2867C84.9368 14.3698 85.0478 14.4638 85.1132 14.5687C85.1787 14.6716 85.2178 14.7968 85.2304 14.9441C85.2364 15.0354 85.2245 15.1973 85.1946 15.4298L85.1051 16.1272C85.0427 16.6135 85.0139 16.9229 85.0185 17.0554C85.0253 17.1862 85.0541 17.315 85.1048 17.4416L84.5585 17.3715C84.5182 17.256 84.4996 17.1247 84.5028 16.9774ZM84.6091 15.8036C84.4093 15.8568 84.1161 15.8861 83.7294 15.8916C83.5104 15.895 83.3538 15.9103 83.2598 15.9377C83.1657 15.965 83.0896 16.0133 83.0314 16.0826C82.9736 16.15 82.9388 16.2292 82.9271 16.3203C82.9092 16.4598 82.9466 16.5827 83.0393 16.6891C83.1339 16.7958 83.2829 16.8622 83.4863 16.8883C83.6878 16.9141 83.8726 16.8935 84.0407 16.8265C84.209 16.7575 84.3398 16.6513 84.4331 16.5077C84.5044 16.3967 84.5549 16.2259 84.5845 15.9954L84.6091 15.8036ZM85.747 17.524L86.143 14.438L86.6138 14.4984L86.5538 14.9662C86.702 14.7627 86.8309 14.6326 86.9406 14.5758C87.0522 14.5192 87.169 14.4988 87.2911 14.5144C87.4674 14.537 87.6394 14.6162 87.807 14.7519L87.5646 15.2141C87.4464 15.1221 87.3234 15.068 87.1956 15.0516C87.0813 15.0369 86.9741 15.0586 86.8741 15.1166C86.7744 15.1728 86.6973 15.2593 86.6429 15.3764C86.5609 15.5549 86.5057 15.7546 86.4774 15.9755L86.2701 17.5911L85.747 17.524ZM89.7367 18.036L89.7867 17.6466C89.5518 17.9276 89.2445 18.0437 88.8648 17.995C88.6187 17.9634 88.4008 17.8665 88.2109 17.7043C88.0229 17.5424 87.8874 17.333 87.8041 17.0761C87.7231 16.8176 87.7029 16.5305 87.7434 16.2147C87.7829 15.9067 87.87 15.6343 88.0048 15.3976C88.1398 15.1589 88.3185 14.986 88.541 14.8786C88.7635 14.7713 89.0017 14.7339 89.2555 14.7665C89.4414 14.7904 89.602 14.8513 89.7371 14.9494C89.8724 15.0456 89.9775 15.1624 90.0524 15.3L90.2486 13.7716L90.7687 13.8383L90.222 18.0983L89.7367 18.036ZM88.281 16.2837C88.2302 16.6789 88.2756 16.985 88.4171 17.2021C88.5586 17.4191 88.7427 17.5422 88.9694 17.5713C89.1979 17.6006 89.4036 17.5325 89.5863 17.3669C89.7712 17.1996 89.8883 16.9242 89.9375 16.5406C89.9917 16.1183 89.9501 15.7979 89.8128 15.5794C89.6754 15.3609 89.4876 15.2364 89.2493 15.2058C89.0168 15.176 88.8099 15.2459 88.6287 15.4156C88.4493 15.5856 88.3334 15.875 88.281 16.2837Z" fill="white"/>
<path d="M1.66636 0.197754H36.6484C36.8717 0.202174 37.0918 0.250789 37.2964 0.340332C37.5009 0.429875 37.6858 0.558701 37.8406 0.719727C37.9953 0.880752 38.1168 1.07083 38.1981 1.27881C38.2794 1.48679 38.3188 1.70887 38.3143 1.93213V23.6079C38.3232 24.0586 38.1526 24.4943 37.8402 24.8193C37.5278 25.1443 37.0991 25.3319 36.6484 25.3408H1.66636C1.21564 25.3319 0.786894 25.1443 0.474468 24.8193C0.162042 24.4943 -0.00849293 24.0586 0.000346514 23.6079V1.93213C-0.00416333 1.70887 0.0353878 1.48679 0.11668 1.27881C0.197971 1.07083 0.31939 0.880752 0.474101 0.719727C0.628813 0.558701 0.813726 0.429875 1.01829 0.340332C1.22286 0.250789 1.4431 0.202174 1.66636 0.197754V0.197754Z" fill="#353A40"/>
<path d="M22.6901 16.7621C22.4257 16.6277 22.2083 16.416 22.0662 16.1556C21.8957 15.837 21.8129 15.4792 21.8262 15.1181C21.8115 14.8719 21.8458 14.6252 21.9271 14.3925C22.0085 14.1597 22.1354 13.9455 22.3002 13.7621C22.4754 13.5952 22.683 13.466 22.9103 13.3827C23.1375 13.2994 23.3795 13.2635 23.6211 13.2777C23.8645 13.2621 24.1086 13.2963 24.3384 13.3783C24.5681 13.4603 24.7787 13.5885 24.9572 13.7548C25.1205 13.9347 25.246 14.1456 25.3265 14.3749C25.4071 14.6042 25.441 14.8472 25.4261 15.0897C25.441 15.4414 25.3724 15.7916 25.2261 16.1117C25.0939 16.3723 24.8881 16.5883 24.6342 16.7328C24.3368 16.8901 24.0033 16.9668 23.6671 16.955C23.3309 16.9671 22.9964 16.9011 22.6901 16.7621V16.7621ZM23.0961 14.3451C22.9671 14.5834 22.8997 14.85 22.8997 15.121C22.8997 15.3919 22.9671 15.6585 23.0961 15.8969C23.1641 15.9707 23.2467 16.0294 23.3386 16.0697C23.4305 16.11 23.5298 16.1312 23.6301 16.1312C23.7305 16.1312 23.8297 16.11 23.9216 16.0697C24.0135 16.0294 24.0961 15.9707 24.1641 15.8969C24.3156 15.6496 24.3824 15.3594 24.3541 15.0707C24.3757 14.8101 24.3049 14.5504 24.1542 14.3368C24.0881 14.2603 24.0054 14.2001 23.9126 14.16C23.8198 14.12 23.7192 14.1013 23.6182 14.1058C23.5187 14.1031 23.4198 14.123 23.3293 14.1644C23.2388 14.2059 23.159 14.268 23.0961 14.3451ZM13.1841 16.9188C13.0098 16.9017 12.8402 16.8522 12.6841 16.7728C12.5425 16.6956 12.4176 16.5911 12.3162 16.4657C12.2123 16.3467 12.1344 16.2077 12.0872 16.057C12.0258 15.8627 11.9922 15.6606 11.9872 15.4569V13.3388H13.0581V15.5067C13.0533 15.5891 13.0649 15.672 13.0922 15.7499C13.1195 15.8278 13.162 15.8994 13.2172 15.9608C13.3385 16.0651 13.4931 16.1224 13.6531 16.1224C13.8131 16.1224 13.9678 16.0651 14.0891 15.9608C14.1442 15.8988 14.1866 15.8264 14.2137 15.7479C14.2409 15.6695 14.2521 15.5866 14.2471 15.5038V13.3358H15.3181V15.454C15.3187 15.6582 15.2849 15.8611 15.2181 16.0541C15.1565 16.2377 15.0539 16.4047 14.9181 16.5429C14.7983 16.6734 14.6512 16.7757 14.4872 16.8427C14.2459 16.9266 13.9915 16.9668 13.7361 16.9608C13.5517 16.9571 13.3679 16.9428 13.1852 16.9179L13.1841 16.9188ZM28.3231 16.8949L27.0231 14.9428V16.8949H26.0131V13.3397H27.0131L28.3221 15.306V13.3397H29.3341V16.8949H28.3231ZM18.3451 16.8949L17.0452 14.9428V16.8949H16.0352V13.3397H17.0352L18.3431 15.306V13.3397H19.3551V16.8949H18.3451ZM20.1151 16.8856V13.3368H21.1951V16.8856H20.1151ZM11.9102 11.9047C11.6786 11.6648 11.5412 11.3499 11.5231 11.017L12.5452 10.952C12.5559 11.0907 12.6019 11.224 12.6791 11.3397C12.7348 11.4114 12.807 11.4685 12.8895 11.5062C12.972 11.544 13.0624 11.5617 13.1531 11.557C13.2811 11.5655 13.4078 11.5256 13.5082 11.4457C13.5457 11.4159 13.5762 11.3783 13.5973 11.3353C13.6184 11.2923 13.6297 11.2451 13.6302 11.1972C13.6308 11.1492 13.6207 11.102 13.6006 11.0585C13.5805 11.015 13.551 10.9763 13.5142 10.9457C13.3479 10.838 13.1602 10.7676 12.9641 10.7396C12.5987 10.6784 12.2533 10.5306 11.9572 10.308C11.8595 10.223 11.7819 10.117 11.73 9.99842C11.6781 9.87979 11.6532 9.75137 11.6571 9.62196C11.6576 9.43824 11.7115 9.25854 11.8121 9.10487C11.9261 8.93344 12.0888 8.80024 12.2792 8.72205C12.5517 8.6177 12.8426 8.57023 13.1342 8.58289C13.4911 8.55908 13.8464 8.64783 14.1501 8.8368C14.2727 8.93374 14.3731 9.05591 14.4448 9.19471C14.5166 9.33351 14.558 9.48595 14.5662 9.64198L13.5541 9.70301C13.5408 9.57013 13.4806 9.44623 13.3842 9.35389C13.2821 9.27596 13.1553 9.23739 13.0271 9.245C12.9265 9.23767 12.8265 9.26644 12.7451 9.32606C12.7152 9.35001 12.691 9.38028 12.6746 9.41493C12.6581 9.44957 12.6498 9.48741 12.6501 9.52577C12.6509 9.55571 12.6584 9.58505 12.6721 9.6117C12.6858 9.63836 12.7053 9.66195 12.7291 9.68006C12.8383 9.7496 12.9616 9.79389 13.0901 9.80994C13.4377 9.8743 13.7764 9.97967 14.0991 10.1239C14.2811 10.2111 14.4347 10.3481 14.5421 10.5189C14.635 10.6781 14.6827 10.8595 14.6802 11.0438C14.6814 11.2677 14.617 11.4869 14.4951 11.6747C14.3697 11.8685 14.1899 12.0208 13.9781 12.1127C13.7128 12.2198 13.4281 12.2709 13.1421 12.2621C12.7004 12.3082 12.2583 12.1794 11.9102 11.9037V11.9047ZM28.3241 12.1947L27.0242 10.2421V12.1947H26.0142V8.64002H27.0142L28.3231 10.6068V8.64002H29.3351V12.1947H28.3241ZM24.4491 12.1947L23.8751 11.1078C23.8289 11.0047 23.7627 10.912 23.6802 10.8348C23.6032 10.7798 23.5107 10.7507 23.4161 10.7518H23.3212V12.1947H22.2421V8.64002H24.0311C24.2878 8.62995 24.5444 8.65921 24.7921 8.72694C24.9661 8.78377 25.1158 8.89731 25.2172 9.04969C25.3283 9.22077 25.3845 9.42193 25.3782 9.62586C25.3827 9.80403 25.3402 9.98048 25.2551 10.1371C25.1727 10.2795 25.0558 10.3985 24.9152 10.4838C24.7977 10.5505 24.6704 10.5985 24.5381 10.6259C24.6373 10.6552 24.7317 10.6989 24.8181 10.7557C24.8824 10.8114 24.9398 10.8745 24.9891 10.9437C25.0462 11.0122 25.0968 11.0861 25.1401 11.1639L25.6602 12.1947H24.4491ZM23.3221 10.079H23.7751C23.8711 10.0721 23.9662 10.0557 24.0591 10.0306C24.1288 10.0163 24.1908 9.97696 24.2332 9.91981C24.2783 9.86031 24.3022 9.78743 24.3011 9.71278C24.3042 9.66342 24.2962 9.6141 24.2777 9.56825C24.2592 9.52239 24.2306 9.48101 24.1941 9.44764C24.0744 9.3741 23.9338 9.34229 23.7941 9.35682H23.3221V10.079ZM18.7222 12.1947V8.64002H21.6001V9.39881H19.8002V9.96375H21.4722V10.6898H19.8002V11.39H21.6552V12.1947H18.7222ZM16.0701 12.1947V9.51795H14.9751V8.64002H18.2401V9.51795H17.1401V12.1947H16.0701ZM8.20508 12.1947V8.64002H11.0831V9.39881H9.28308V9.96375H10.9541V10.6898H9.27515V11.39H11.1282V12.1947H8.20508ZM6.03809 12.1947L5.42908 9.95594L4.82214 12.1947H3.76917L2.99609 8.64002H4.01611L4.38318 10.6298L4.92114 8.64002H5.93713L6.47607 10.6278L6.84314 8.64002H7.85815L7.09216 12.1947H6.03809Z" fill="#ECD345"/>
<path d="M34.1248 16.957V8.57715H35.3247V16.957H34.1248ZM31.1348 16.957V8.57715H32.3347V16.957H31.1348Z" fill="#ECD345"/>
</svg>
