<svg width="24" height="24" viewBox="0 0 24 24" fill="none" xmlns="http://www.w3.org/2000/svg">
<path d="M13.2442 14.3264C12.553 15.2377 12.1427 16.3744 12.1427 17.6072C12.1427 18.5902 12.4036 19.5122 12.8599 20.3076C12.9995 20.5509 12.8002 21 12.5345 21H3.35518C2.60673 21 2 20.3924 2 19.6428C2 19.4623 2.03595 19.2836 2.10577 19.1172C2.41156 18.3882 2.92085 17.7914 3.63361 17.3268C5.51208 16.1024 8.78628 15.9592 8.78628 14.0204C8.78628 13.5041 8.5913 12.8571 8.20139 12.2755C7.81145 11.6939 7.61649 11.5 7.0316 10.7183C6.44671 9.93652 6.25173 8.78572 6.25173 8.20408C6.25173 7.62244 6.64167 7.81633 6.64167 7.43071C6.61449 5.36234 6.88874 3.81767 8.78628 2.77552C9.17465 2.5622 10.0947 2.44972 10.534 2.44972C11.0153 2.39962 10.5388 2 11.6005 2C12.6622 2 14.1388 2.47609 14.8446 3.94976C15.5503 5.42342 15.6101 7.04082 15.6101 7.42856C15.6101 7.81631 16 7.62244 16 8.20408C16 8.7857 15.8318 9.93655 15.2335 10.7183C14.6352 11.5 14.4403 11.6939 14.0503 12.2755C13.7055 12.7899 13.5131 13.3453 13.4733 13.8329C13.4681 13.8966 13.3152 14.2329 13.2442 14.3264Z" fill="black"/>
<path d="M18 22C15.7909 22 14 20.2091 14 18C14 15.7909 15.7909 14 18 14C20.2091 14 22 15.7909 22 18C22 20.2091 20.2091 22 18 22ZM18.4978 18.5023L19.9959 18.5037C20.272 18.5039 20.4961 18.2803 20.4963 18.0041C20.4966 17.728 20.2729 17.5039 19.9968 17.5037L18.4987 17.5023L18.5 16.0042C18.5003 15.7281 18.2766 15.504 18.0005 15.5038C17.7243 15.5035 17.5003 15.7272 17.5 16.0033L17.4987 17.5014L16.0006 17.5001C15.7244 17.4998 15.5003 17.7235 15.5001 17.9996C15.4999 18.2758 15.7235 18.4998 15.9997 18.5001L17.4978 18.5014L17.4964 19.9996C17.4962 20.2757 17.7199 20.4998 17.996 20.5C18.2721 20.5003 18.4962 20.2766 18.4964 20.0004L18.4978 18.5023Z" fill="black"/>
</svg>
