<svg width="168" height="174" viewBox="0 0 168 174" fill="none" xmlns="http://www.w3.org/2000/svg">
<g opacity="0.5">
<path d="M90.8848 0L90.8848 173" stroke="#E3C08D"/>
<path d="M82.623 0L82.623 173" stroke="#E3C08D"/>
<path d="M74.3594 0L74.3594 173" stroke="#E3C08D"/>
<path d="M66.0977 0L66.0977 173" stroke="#E3C08D"/>
<path d="M57.8359 0L57.8359 173" stroke="#E3C08D"/>
<path d="M49.5742 0L49.5742 173" stroke="#E3C08D"/>
<path d="M41.3105 0L41.3105 173" stroke="#E3C08D"/>
<path d="M33.0488 0L33.0488 173" stroke="#E3C08D"/>
<path d="M24.7871 0L24.7871 173" stroke="#E3C08D"/>
<path d="M16.5234 0L16.5234 173" stroke="#E3C08D"/>
<path d="M8.26172 0L8.26172 173" stroke="#E3C08D"/>
<path d="M0 0L2.063e-06 173" stroke="#E3C08D"/>
<path d="M168 173L90.8852 173" stroke="#E3C08D"/>
<path d="M168 164.696L90.8852 164.696" stroke="#E3C08D"/>
<path d="M168 156.392L90.8852 156.392" stroke="#E3C08D"/>
<path d="M168 148.088L90.8852 148.088" stroke="#E3C08D"/>
<path d="M168 139.784L90.8852 139.784" stroke="#E3C08D"/>
<path d="M168 131.48L90.8852 131.48" stroke="#E3C08D"/>
<path d="M168 123.176L90.8852 123.176" stroke="#E3C08D"/>
<path d="M168 114.872L90.8852 114.872" stroke="#E3C08D"/>
<path d="M168 106.568L90.8852 106.568" stroke="#E3C08D"/>
<path d="M168 98.2637L90.8852 98.2637" stroke="#E3C08D"/>
<path d="M168 89.96L90.8852 89.96" stroke="#E3C08D"/>
<path d="M168 81.6562L90.8852 81.6562" stroke="#E3C08D"/>
</g>
</svg>
