<svg width="92" height="37" viewBox="0 0 92 37" fill="none" xmlns="http://www.w3.org/2000/svg">
<path d="M3.132 29.132C2.532 29.132 1.968 28.964 1.44 28.628C0.912 28.292 0.648 27.86 0.648 27.332C0.648 27.068 0.708 26.744 0.828 26.36C0.948 26 1.056 25.664 1.152 25.352C1.92 23 2.64 20.804 3.312 18.764C3.984 16.724 4.656 14.744 5.328 12.824C6 10.904 6.708 8.984 7.452 7.064C8.22 5.144 9.072 3.14 10.008 1.052C9.096 1.22 8.28 1.472 7.56 1.808C6.864 2.12 6.3 2.408 5.868 2.672C5.436 2.912 5.148 3.032 5.004 3.032C4.908 3.032 4.764 2.984 4.572 2.888C4.404 2.768 4.248 2.636 4.104 2.492C3.96 2.324 3.888 2.18 3.888 2.06C4.512 1.796 5.244 1.508 6.084 1.196C6.948 0.883999 7.872 0.619999 8.856 0.403999C9.84 0.187999 10.836 0.079999 11.844 0.079999C12.9 0.079999 13.968 0.223999 15.048 0.512C16.152 0.799999 17.16 1.244 18.072 1.844C18.984 2.42 19.716 3.14 20.268 4.004C20.82 4.868 21.096 5.876 21.096 7.028C21.096 8.276 20.82 9.356 20.268 10.268C19.716 11.156 18.984 11.912 18.072 12.536C17.16 13.136 16.176 13.628 15.12 14.012C14.064 14.372 13.008 14.66 11.952 14.876C10.92 15.068 9.996 15.2 9.18 15.272C8.364 15.32 7.764 15.344 7.38 15.344H7.02C6.3 17.816 5.604 20.252 4.932 22.652C4.284 25.052 3.684 27.212 3.132 29.132ZM7.164 14.768C8.484 14.696 9.816 14.48 11.16 14.12C12.528 13.76 13.776 13.244 14.904 12.572C16.032 11.876 16.944 11.024 17.64 10.016C18.336 8.984 18.684 7.784 18.684 6.416C18.684 5.12 18.372 4.064 17.748 3.248C17.148 2.432 16.344 1.832 15.336 1.448C14.352 1.04 13.296 0.835998 12.168 0.835998C11.28 2.588 10.416 4.688 9.576 7.136C8.736 9.584 7.932 12.128 7.164 14.768ZM17.9702 27.692C17.2262 27.692 16.6022 27.44 16.0982 26.936C15.5702 26.456 15.3062 25.712 15.3062 24.704C15.3062 23.84 15.4982 22.916 15.8822 21.932C16.2662 20.924 16.7942 19.94 17.4662 18.98C18.1382 17.996 18.8942 17.108 19.7342 16.316C20.5982 15.5 21.4982 14.852 22.4342 14.372C23.3942 13.892 24.3422 13.652 25.2782 13.652C26.2142 13.652 26.9942 13.904 27.6182 14.408C28.2422 14.888 28.5542 15.536 28.5542 16.352C28.5542 16.952 28.3862 17.36 28.0502 17.576C27.7382 17.792 27.3182 17.9 26.7902 17.9C26.8382 17.708 26.8742 17.504 26.8982 17.288C26.9462 17.048 26.9702 16.832 26.9702 16.64C26.9702 16.088 26.8382 15.62 26.5742 15.236C26.3102 14.828 25.8542 14.624 25.2062 14.624C24.5342 14.624 23.8502 14.864 23.1542 15.344C22.4582 15.8 21.7862 16.424 21.1382 17.216C20.4902 17.984 19.9142 18.824 19.4102 19.736C18.9062 20.648 18.5102 21.548 18.2222 22.436C17.9342 23.324 17.7902 24.116 17.7902 24.812C17.7902 25.748 18.1142 26.216 18.7622 26.216C19.3142 26.216 19.9142 25.964 20.5622 25.46C21.2102 24.932 21.8702 24.272 22.5422 23.48C23.2382 22.664 23.8982 21.824 24.5222 20.96C25.1462 20.096 25.6982 19.304 26.1782 18.584C26.2742 18.44 26.3342 18.368 26.3582 18.368C26.5022 18.392 26.6822 18.44 26.8982 18.512C27.1382 18.584 27.3422 18.68 27.5102 18.8C27.6782 18.92 27.7622 19.076 27.7622 19.268C27.7622 19.484 27.6542 19.784 27.4382 20.168C27.2222 20.528 26.9822 20.948 26.7182 21.428C26.4542 21.908 26.2142 22.4 25.9982 22.904C25.7822 23.384 25.6742 23.84 25.6742 24.272C25.6742 24.632 25.7702 24.992 25.9622 25.352C26.1542 25.688 26.4662 25.856 26.8982 25.856C27.5462 25.856 28.3982 25.388 29.4542 24.452C30.5102 23.492 31.5782 22.064 32.6582 20.168L33.0182 20.528C32.5142 21.824 31.8662 22.964 31.0742 23.948C30.2822 24.932 29.4302 25.7 28.5182 26.252C27.6302 26.804 26.7542 27.08 25.8902 27.08C25.0022 27.08 24.3422 26.816 23.9102 26.288C23.5022 25.76 23.2982 25.184 23.2982 24.56C23.2982 24.416 23.3102 24.26 23.3342 24.092C23.3582 23.9 23.3822 23.708 23.4062 23.516C22.3742 24.908 21.4262 25.952 20.5622 26.648C19.7222 27.344 18.8582 27.692 17.9702 27.692ZM29.6539 36.08C29.4619 36.08 29.2819 35.972 29.1139 35.756C28.9219 35.564 28.7779 35.348 28.6819 35.108C28.5859 34.892 28.5379 34.76 28.5379 34.712C28.8739 33.536 29.2099 32.48 29.5459 31.544C29.8579 30.632 30.1819 29.684 30.5179 28.7C30.8299 27.74 31.1419 26.612 31.4539 25.316C31.7659 23.996 32.0899 22.364 32.4259 20.42C32.7619 18.476 33.0979 16.064 33.4339 13.184C33.4579 12.968 33.5059 12.812 33.5779 12.716C33.6499 12.62 33.8299 12.572 34.1179 12.572C34.7419 12.572 35.1859 12.752 35.4499 13.112C35.7139 13.448 35.8459 13.82 35.8459 14.228C35.8459 14.564 35.7739 15.164 35.6299 16.028C35.4859 16.892 35.2819 17.912 35.0179 19.088C35.4259 18.296 35.9299 17.492 36.5299 16.676C37.1539 15.86 37.8619 15.176 38.6539 14.624C39.4459 14.072 40.3099 13.796 41.2459 13.796C42.3019 13.796 43.1659 14.18 43.8379 14.948C44.5339 15.692 44.8819 16.676 44.8819 17.9C44.8819 18.836 44.6659 19.832 44.2339 20.888C43.8259 21.92 43.2379 22.904 42.4699 23.84C41.7259 24.752 40.8379 25.496 39.8059 26.072C38.7739 26.648 37.6339 26.936 36.3859 26.936C35.7619 26.936 35.2579 26.864 34.8739 26.72C34.4899 26.576 34.2979 26.432 34.2979 26.288C34.2979 26.192 34.3819 26.132 34.5499 26.108C34.7419 26.108 34.9579 26.108 35.1979 26.108C36.1579 26.108 37.0699 25.88 37.9339 25.424C38.8219 24.944 39.6139 24.32 40.3099 23.552C41.0059 22.784 41.5459 21.932 41.9299 20.996C42.3379 20.06 42.5419 19.136 42.5419 18.224C42.5419 17.456 42.3739 16.808 42.0379 16.28C41.7259 15.728 41.2099 15.452 40.4899 15.452C39.8659 15.452 39.2419 15.656 38.6179 16.064C38.0179 16.448 37.4419 16.952 36.8899 17.576C36.3619 18.176 35.8819 18.812 35.4499 19.484C35.0419 20.132 34.7299 20.72 34.5139 21.248C34.0819 23.048 33.6499 24.776 33.2179 26.432C32.7859 28.112 32.3659 29.624 31.9579 30.968C31.5739 32.336 31.2259 33.452 30.9139 34.316C30.5779 35.18 30.3019 35.708 30.0859 35.9C29.9659 36.02 29.8219 36.08 29.6539 36.08ZM47.7124 27.692C46.9684 27.692 46.3444 27.44 45.8404 26.936C45.3124 26.456 45.0484 25.712 45.0484 24.704C45.0484 23.84 45.2404 22.916 45.6244 21.932C46.0084 20.924 46.5364 19.94 47.2084 18.98C47.8804 17.996 48.6364 17.108 49.4764 16.316C50.3404 15.5 51.2404 14.852 52.1764 14.372C53.1364 13.892 54.0844 13.652 55.0204 13.652C55.9564 13.652 56.7364 13.904 57.3604 14.408C57.9844 14.888 58.2964 15.536 58.2964 16.352C58.2964 16.952 58.1284 17.36 57.7924 17.576C57.4804 17.792 57.0604 17.9 56.5324 17.9C56.5804 17.708 56.6164 17.504 56.6404 17.288C56.6884 17.048 56.7124 16.832 56.7124 16.64C56.7124 16.088 56.5804 15.62 56.3164 15.236C56.0524 14.828 55.5964 14.624 54.9484 14.624C54.2764 14.624 53.5924 14.864 52.8964 15.344C52.2004 15.8 51.5284 16.424 50.8804 17.216C50.2324 17.984 49.6564 18.824 49.1524 19.736C48.6484 20.648 48.2524 21.548 47.9644 22.436C47.6764 23.324 47.5324 24.116 47.5324 24.812C47.5324 25.748 47.8564 26.216 48.5044 26.216C49.0564 26.216 49.6564 25.964 50.3044 25.46C50.9524 24.932 51.6124 24.272 52.2844 23.48C52.9804 22.664 53.6404 21.824 54.2644 20.96C54.8884 20.096 55.4404 19.304 55.9204 18.584C56.0164 18.44 56.0764 18.368 56.1004 18.368C56.2444 18.392 56.4244 18.44 56.6404 18.512C56.8804 18.584 57.0844 18.68 57.2524 18.8C57.4204 18.92 57.5044 19.076 57.5044 19.268C57.5044 19.484 57.3964 19.784 57.1804 20.168C56.9644 20.528 56.7244 20.948 56.4604 21.428C56.1964 21.908 55.9564 22.4 55.7404 22.904C55.5244 23.384 55.4164 23.84 55.4164 24.272C55.4164 24.632 55.5124 24.992 55.7044 25.352C55.8964 25.688 56.2084 25.856 56.6404 25.856C57.2884 25.856 58.1404 25.388 59.1964 24.452C60.2524 23.492 61.3204 22.064 62.4004 20.168L62.7604 20.528C62.2564 21.824 61.6084 22.964 60.8164 23.948C60.0244 24.932 59.1724 25.7 58.2604 26.252C57.3724 26.804 56.4964 27.08 55.6324 27.08C54.7444 27.08 54.0844 26.816 53.6524 26.288C53.2444 25.76 53.0404 25.184 53.0404 24.56C53.0404 24.416 53.0524 24.26 53.0764 24.092C53.1004 23.9 53.1244 23.708 53.1484 23.516C52.1164 24.908 51.1684 25.952 50.3044 26.648C49.4644 27.344 48.6004 27.692 47.7124 27.692ZM63.2121 36.08C62.6121 36.08 62.0841 35.912 61.6281 35.576C61.1721 35.264 60.9441 34.796 60.9441 34.172C60.9441 33.404 61.1361 32.72 61.5201 32.12C61.9041 31.52 62.4201 30.968 63.0681 30.464C63.7161 29.96 64.4601 29.48 65.3001 29.024C66.1401 28.568 67.0161 28.112 67.9281 27.656C68.2641 26.768 68.6001 25.784 68.9361 24.704C69.2961 23.6 69.6321 22.388 69.9441 21.068C69.1761 22.316 68.3481 23.396 67.4601 24.308C66.5961 25.196 65.6721 25.64 64.6881 25.64C64.2321 25.64 63.7761 25.544 63.3201 25.352C62.8881 25.136 62.5281 24.812 62.2401 24.38C61.9521 23.948 61.8081 23.396 61.8081 22.724C61.8081 22.052 61.9161 21.272 62.1321 20.384C62.3721 19.496 62.6601 18.632 62.9961 17.792C63.3321 16.952 63.6801 16.256 64.0401 15.704C64.4001 15.152 64.7121 14.876 64.9761 14.876C65.0721 14.876 65.2401 14.912 65.4801 14.984C65.7441 15.056 65.9841 15.164 66.2001 15.308C66.4401 15.428 66.5601 15.56 66.5601 15.704C66.3441 16.016 66.1041 16.46 65.8401 17.036C65.5761 17.612 65.3121 18.26 65.0481 18.98C64.8081 19.676 64.6041 20.36 64.4361 21.032C64.2681 21.704 64.1841 22.28 64.1841 22.76C64.1841 23.192 64.2801 23.54 64.4721 23.804C64.6641 24.068 65.0001 24.2 65.4801 24.2C65.9361 24.2 66.4401 23.984 66.9921 23.552C67.5681 23.096 68.1321 22.52 68.6841 21.824C69.2601 21.128 69.7881 20.384 70.2681 19.592C70.3401 19.328 70.4001 19.064 70.4481 18.8C70.5201 18.512 70.5801 18.224 70.6281 17.936C70.7001 17.6 70.8681 17.216 71.1321 16.784C71.4201 16.328 71.8641 16.1 72.4641 16.1C72.5841 16.1 72.7041 16.112 72.8241 16.136C72.9441 16.136 73.0761 16.16 73.2201 16.208C73.2201 16.592 73.1001 17.312 72.8601 18.368C72.6441 19.4 72.3201 20.612 71.8881 22.004C71.4801 23.396 70.9881 24.824 70.4121 26.288C71.5401 25.856 72.6441 25.148 73.7241 24.164C74.8041 23.156 75.6801 21.824 76.3521 20.168L76.8201 20.528C76.4601 21.68 75.9081 22.688 75.1641 23.552C74.4441 24.392 73.6281 25.124 72.7161 25.748C71.8041 26.348 70.9041 26.852 70.0161 27.26C69.3921 28.796 68.7081 30.236 67.9641 31.58C67.2441 32.924 66.4761 34.004 65.6601 34.82C64.8681 35.66 64.0521 36.08 63.2121 36.08ZM63.0321 34.928C63.3921 34.928 63.9921 34.448 64.8321 33.488C65.6961 32.552 66.6081 30.896 67.5681 28.52C66.5841 29.048 65.6721 29.564 64.8321 30.068C63.9921 30.596 63.3201 31.16 62.8161 31.76C62.3121 32.36 62.0601 33.056 62.0601 33.848C62.0601 34.04 62.1321 34.268 62.2761 34.532C62.4201 34.796 62.6721 34.928 63.0321 34.928ZM79.4363 27.836C78.3083 27.836 77.4083 27.584 76.7363 27.08C76.0883 26.6 75.6322 26 75.3682 25.28C75.0802 24.56 74.9362 23.84 74.9362 23.12C74.9362 22.4 75.0322 21.848 75.2242 21.464C75.4162 21.08 75.6442 20.792 75.9083 20.6C76.1963 20.408 76.4603 20.264 76.7003 20.168C76.9643 20.072 77.1443 19.976 77.2403 19.88C77.9603 19.088 78.6203 18.26 79.2203 17.396C79.8203 16.532 80.3483 15.62 80.8043 14.66V14.228C80.8043 13.34 80.9483 12.716 81.2363 12.356C81.5483 11.972 81.8723 11.78 82.2083 11.78C82.4003 11.78 82.5443 11.828 82.6403 11.924C82.7363 12.02 82.7843 12.128 82.7843 12.248C82.7843 12.368 82.7483 12.56 82.6763 12.824C82.6043 13.088 82.5683 13.424 82.5683 13.832C82.5683 14.624 82.7243 15.488 83.0363 16.424C83.3483 17.336 83.6603 18.308 83.9723 19.34C84.2843 20.348 84.4403 21.404 84.4403 22.508C84.4403 22.82 84.4163 23.132 84.3683 23.444C84.3443 23.732 84.2963 24.008 84.2243 24.272C85.0643 24.128 85.8563 23.756 86.6003 23.156C87.3443 22.532 88.0643 21.548 88.7603 20.204L89.0843 20.564C88.6283 21.884 87.9443 22.892 87.0323 23.588C86.1203 24.26 85.1243 24.68 84.0443 24.848C83.6603 25.88 83.0483 26.636 82.2083 27.116C81.3923 27.596 80.4683 27.836 79.4363 27.836ZM79.5083 26.576C79.7963 26.576 80.1803 26.48 80.6603 26.288C81.1403 26.096 81.5123 25.604 81.7763 24.812C80.7683 24.62 79.8683 24.224 79.0763 23.624C78.3083 23.024 77.7323 22.424 77.3483 21.824C76.8203 21.848 76.5563 22.268 76.5563 23.084C76.5563 23.948 76.8083 24.752 77.3123 25.496C77.8403 26.216 78.5723 26.576 79.5083 26.576ZM81.9563 24.236C82.0043 23.996 82.0403 23.744 82.0643 23.48C82.0883 23.216 82.1003 22.904 82.1003 22.544C82.1003 21.416 81.9563 20.3 81.6683 19.196C81.4043 18.068 81.1763 17.012 80.9843 16.028C80.4323 16.94 79.8443 17.816 79.2203 18.656C78.6203 19.472 78.0443 20.156 77.4923 20.708C77.8523 21.476 78.4043 22.196 79.1483 22.868C79.9163 23.54 80.8523 23.996 81.9563 24.236ZM89.5064 26.36C89.1944 26.36 88.9184 26.276 88.6784 26.108C88.4624 25.964 88.3544 25.724 88.3544 25.388C88.3544 25.124 88.4624 24.884 88.6784 24.668C88.8944 24.428 89.1584 24.248 89.4704 24.128C89.8064 23.984 90.1304 23.912 90.4424 23.912C90.7304 23.912 90.9584 23.972 91.1264 24.092C91.2944 24.212 91.3784 24.44 91.3784 24.776C91.3784 25.016 91.2824 25.256 91.0904 25.496C90.9224 25.736 90.6944 25.94 90.4064 26.108C90.1184 26.276 89.8184 26.36 89.5064 26.36Z" fill="#D7B686"/>
</svg>
