<svg width="25" height="24" viewBox="0 0 25 24" fill="none" xmlns="http://www.w3.org/2000/svg">
<path fill-rule="evenodd" clip-rule="evenodd" d="M1.66016 3.32877C1.66016 3.69697 1.95863 3.99545 2.32682 3.99545H4.184C4.52544 3.99545 4.81169 4.25342 4.84707 4.59302L6.12741 16.8806C6.23356 17.8994 7.0923 18.6733 8.11662 18.6733H20.9529C21.321 18.6733 21.6195 18.3749 21.6195 18.0067C21.6195 17.6385 21.321 17.34 20.9529 17.34H8.11662C7.77518 17.34 7.48893 17.082 7.45355 16.7424L7.36956 15.9364L20.2437 14.73C20.6514 14.6918 20.9945 14.4089 21.1099 14.0161L23.2835 6.61516C23.4716 5.97476 22.9915 5.33337 22.324 5.33337H6.26475L6.17321 4.45483C6.06706 3.43603 5.20831 2.66211 4.184 2.66211H2.32682C1.95863 2.66211 1.66016 2.96059 1.66016 3.32877Z" fill="white"/>
<path fill-rule="evenodd" clip-rule="evenodd" d="M8.99348 22.6667C9.72985 22.6667 10.3268 22.0697 10.3268 21.3333C10.3268 20.597 9.72985 20 8.99348 20C8.2571 20 7.66016 20.597 7.66016 21.3333C7.66016 22.0697 8.2571 22.6667 8.99348 22.6667Z" fill="white"/>
<path fill-rule="evenodd" clip-rule="evenodd" d="M18.3255 22.6667C19.0619 22.6667 19.6588 22.0697 19.6588 21.3333C19.6588 20.597 19.0619 20 18.3255 20C17.5891 20 16.9922 20.597 16.9922 21.3333C16.9922 22.0697 17.5891 22.6667 18.3255 22.6667Z" fill="white"/>
</svg>
