<svg width="19" height="20" viewBox="0 0 19 20" fill="none" xmlns="http://www.w3.org/2000/svg">
<path d="M15.9376 7.47387C14.9947 4.71163 12.5541 2.73764 9.68221 2.73764C6.82274 2.73764 4.38828 4.69377 3.43925 7.43815C3.38973 7.37786 3.33816 7.3198 3.28245 7.26844C3.82092 3.92338 6.48027 1.37997 9.68634 1.37997C12.878 1.37997 15.5291 3.89881 16.0861 7.21931C16.0283 7.2997 15.9788 7.38455 15.9376 7.47387ZM17.2703 6.5695C17.2579 6.5695 17.2476 6.57174 17.2352 6.57174C16.4327 2.8091 13.3628 0.00219727 9.68428 0.00219727C5.90466 0.00219727 2.76461 2.96541 2.06934 6.88436C1.3782 7.02281 0.874805 7.67708 0.878931 8.43854V11.5536C0.878931 12.4267 1.52675 13.1346 2.32517 13.1346C2.77493 13.1346 3.17311 12.9046 3.43718 12.5518C4.07675 14.3761 5.36825 15.8499 7.02287 16.6315C7.0435 16.5868 7.06825 16.5444 7.09508 16.5042C7.1219 16.4685 7.15078 16.4372 7.17554 16.4372C7.20029 16.4372 7.22505 16.4461 7.24568 16.4618C6.86401 16.1536 5.48791 14.5771 5.18876 12.3731C5.05879 11.404 5.7293 10.4505 6.51122 10.2942C7.76558 10.0418 9.01377 9.75379 10.2681 9.50592C11.0666 9.34961 11.6112 8.87398 11.9434 8.08572C12.0218 7.90038 12.1352 7.52747 12.1868 6.99154C12.1992 6.91115 12.2632 6.85086 12.3395 6.85086C12.389 6.85086 12.4344 6.87766 12.4633 6.92009L12.4984 6.89776C12.9935 7.67485 13.9735 9.3965 14.1138 11.2097C14.2747 13.2842 14.186 14.7044 12.7191 16.1581L12.7129 16.1648C12.6923 16.1893 12.6799 16.2206 12.6799 16.2541C12.6799 16.2965 12.7005 16.3367 12.7335 16.3591C12.7459 16.3635 12.7583 16.3725 12.7707 16.3769C12.781 16.3791 12.7893 16.3814 12.7996 16.3836C12.8099 16.3836 12.8181 16.3814 12.8264 16.3769C12.847 16.3658 12.8676 16.3524 12.8883 16.339C14.3861 15.4435 15.5126 13.963 16.0345 12.1989C16.2525 12.5465 16.587 12.7884 16.967 12.8733C16.3481 15.9303 13.827 17.8462 10.7055 18.1343C10.5075 17.6118 10.0371 17.2724 9.51716 17.2746C8.81158 17.2746 8.23804 17.8797 8.23804 18.6256C8.23804 19.3714 8.81158 19.9765 9.51716 19.9765C10.066 19.9788 10.5549 19.5992 10.7282 19.0364C14.3407 18.7194 17.2373 16.3948 17.8418 12.784C18.3927 12.5384 18.7516 11.9578 18.7516 11.3124V8.16611C18.7558 7.28407 18.0914 6.5695 17.2703 6.5695Z" fill="#616164"/>
</svg>
