<svg width="25" height="10" viewBox="0 0 25 10" fill="none" xmlns="http://www.w3.org/2000/svg">
<path d="M22.9724 9.22607L22.7205 7.93115H19.9865L19.5375 9.22607H17.2954L20.5024 1.16113C20.577 0.961142 20.7137 0.790114 20.8923 0.67334C21.071 0.556566 21.2824 0.500246 21.4955 0.512207H23.2245L24.9464 9.22705L22.9724 9.22607ZM21.7365 2.88184L20.6064 6.14307H22.3724L21.7365 2.88184ZM14.4495 2.99609C14.4495 3.94809 17.4495 4.15182 17.4495 6.34082C17.4495 8.44882 15.2345 9.22412 13.7675 9.22412C12.9337 9.23791 12.1063 9.07564 11.3395 8.74805L11.6594 6.85791C12.5394 7.57791 15.2085 7.78314 15.2085 6.64014C15.2085 5.49714 12.2335 5.46995 12.2335 3.29395C12.2335 0.981945 14.7675 0.505859 15.8335 0.505859C16.4938 0.522787 17.1469 0.646918 17.7675 0.873047L17.4604 2.68213C16.5424 2.17013 14.4475 2.048 14.4475 3L14.4495 2.99609ZM7.86548 9.22607L9.20947 0.510742H11.3605L10.0165 9.22607H7.86548ZM2.7085 9.22607L0.842407 1.66406C1.17206 1.86996 1.48657 2.09925 1.78345 2.3501C2.68046 3.11768 3.36298 4.10458 3.7644 5.21484L4.00745 6.50586L6.05847 0.512207H8.37341L4.95142 9.22705L2.7085 9.22607ZM0.714478 1.58008C0.647811 1.53874 0.581071 1.49894 0.514404 1.46094C0.578404 1.50494 0.644402 1.54296 0.712402 1.58496L0.714478 1.58008ZM0.200439 1.29004C0.142439 1.26004 0.0825127 1.2282 0.0255127 1.2002C0.0805126 1.2332 0.139486 1.26492 0.198486 1.29492L0.200439 1.29004Z" fill="#494CA3"/>
</svg>
