<svg width="174" height="169" viewBox="0 0 174 169" fill="none" xmlns="http://www.w3.org/2000/svg">
<path d="M1 0L1 77.1148" stroke="#E3C08D"/>
<path d="M9.30469 0L9.30469 77.1148" stroke="#E3C08D"/>
<path d="M17.6074 0L17.6074 77.1148" stroke="#E3C08D"/>
<path d="M25.9121 0L25.9121 77.1148" stroke="#E3C08D"/>
<path d="M34.2168 0L34.2168 77.1148" stroke="#E3C08D"/>
<path d="M42.5195 0L42.5195 77.1148" stroke="#E3C08D"/>
<path d="M50.8242 0L50.8242 77.1148" stroke="#E3C08D"/>
<path d="M59.1289 0L59.1289 77.1148" stroke="#E3C08D"/>
<path d="M67.4316 0L67.4316 77.1148" stroke="#E3C08D"/>
<path d="M75.7363 0L75.7363 77.1148" stroke="#E3C08D"/>
<path d="M84.0391 0L84.0391 77.1148" stroke="#E3C08D"/>
<path d="M92.3438 0L92.3438 77.1148" stroke="#E3C08D"/>
<path d="M174 77.1152L1 77.1152" stroke="#E3C08D"/>
<path d="M174 85.3779L1 85.3779" stroke="#E3C08D"/>
<path d="M174 93.6396L1 93.6396" stroke="#E3C08D"/>
<path d="M174 101.902L1 101.902" stroke="#E3C08D"/>
<path d="M174 110.164L1 110.164" stroke="#E3C08D"/>
<path d="M174 118.427L1 118.427" stroke="#E3C08D"/>
<path d="M174 126.689L1 126.689" stroke="#E3C08D"/>
<path d="M174 134.951H1" stroke="#E3C08D"/>
<path d="M174 143.214H1" stroke="#E3C08D"/>
<path d="M174 151.476H1" stroke="#E3C08D"/>
<path d="M174 159.738H1" stroke="#E3C08D"/>
<path d="M174 168H1" stroke="#E3C08D"/>
</svg>
