<svg width="174" height="169" viewBox="0 0 174 169" fill="none" xmlns="http://www.w3.org/2000/svg">
<g opacity="0.5">
<path d="M0 77.1152L173 77.1152" stroke="#E3C08D"/>
<path d="M0 85.3779L173 85.3779" stroke="#E3C08D"/>
<path d="M0 93.6396L173 93.6396" stroke="#E3C08D"/>
<path d="M0 101.902L173 101.902" stroke="#E3C08D"/>
<path d="M0 110.164L173 110.164" stroke="#E3C08D"/>
<path d="M0 118.427L173 118.427" stroke="#E3C08D"/>
<path d="M0 126.689L173 126.689" stroke="#E3C08D"/>
<path d="M0 134.951H173" stroke="#E3C08D"/>
<path d="M0 143.214H173" stroke="#E3C08D"/>
<path d="M0 151.476H173" stroke="#E3C08D"/>
<path d="M0 159.738H173" stroke="#E3C08D"/>
<path d="M0 168H173" stroke="#E3C08D"/>
<path d="M173 0L173 77.1148" stroke="#E3C08D"/>
<path d="M164.696 0L164.696 77.1148" stroke="#E3C08D"/>
<path d="M156.392 0L156.392 77.1148" stroke="#E3C08D"/>
<path d="M148.088 0L148.088 77.1148" stroke="#E3C08D"/>
<path d="M139.784 0L139.784 77.1148" stroke="#E3C08D"/>
<path d="M131.48 0L131.48 77.1148" stroke="#E3C08D"/>
<path d="M123.176 0L123.176 77.1148" stroke="#E3C08D"/>
<path d="M114.872 0L114.872 77.1148" stroke="#E3C08D"/>
<path d="M106.568 0L106.568 77.1148" stroke="#E3C08D"/>
<path d="M98.2637 0L98.2637 77.1148" stroke="#E3C08D"/>
<path d="M89.96 0L89.96 77.1148" stroke="#E3C08D"/>
<path d="M81.6562 0L81.6562 77.1148" stroke="#E3C08D"/>
</g>
</svg>
